<svg xmlns="http://www.w3.org/2000/svg" class="feature__icon-image" fill="#FF0B37" height="40" width="33.6"><defs><symbol id="a" viewBox="0 0 80 80"><path d="M17.6 35.2H4.8A4.8 4.8 0 000 40v38.4A1.6 1.6 0 001.6 80h16a1.6 1.6 0 001.6-1.6V36.8a1.6 1.6 0 00-1.6-1.6zm-6.4 38.4H8a1.6 1.6 0 010-3.2h3.2a1.6 1.6 0 010 3.2zm0-9.6H8a1.6 1.6 0 110-3.2h3.2a1.6 1.6 0 010 3.2zm0-9.6H8a1.6 1.6 0 010-3.2h3.2a1.6 1.6 0 110 3.2zm0-9.6H8a1.6 1.6 0 010-3.2h3.2a1.6 1.6 0 010 3.2zm64-9.6H62.4a1.6 1.6 0 00-1.6 1.6v41.6a1.6 1.6 0 001.6 1.6h16a1.6 1.6 0 001.6-1.6V40a4.8 4.8 0 00-4.8-4.8zM72 73.6h-3.2a1.6 1.6 0 010-3.2H72a1.6 1.6 0 010 3.2zm0-9.6h-3.2a1.6 1.6 0 110-3.2H72a1.6 1.6 0 010 3.2zm0-9.6h-3.2a1.6 1.6 0 010-3.2H72a1.6 1.6 0 110 3.2zm0-9.6h-3.2a1.6 1.6 0 010-3.2H72a1.6 1.6 0 010 3.2zM36.8 65.6h6.4V80h-6.4V65.6z"/><path d="M41.6 20.03V1.6A1.6 1.6 0 0040 0H22.4a1.6 1.6 0 00-1.28 2.56L25.2 8l-4.08 5.44A1.6 1.6 0 0022.4 16h16v4.03L23 32.35a1.599 1.599 0 00-.6 1.25v44.8A1.6 1.6 0 0024 80h9.6V64a1.6 1.6 0 011.6-1.6h9.6a1.6 1.6 0 011.6 1.6v16H56a1.6 1.6 0 001.6-1.6V33.6a1.6 1.6 0 00-.6-1.25L41.6 20.03zM40 32a4.8 4.8 0 110 9.6 4.8 4.8 0 010-9.6zm9.6 24H30.4a1.6 1.6 0 010-3.2h19.2a1.6 1.6 0 110 3.2zm0-8H30.4a1.6 1.6 0 010-3.2h19.2a1.6 1.6 0 010 3.2z"/></symbol></defs><use href="#a"/></svg>