<svg xmlns="http://www.w3.org/2000/svg" class="feature__icon-image" fill="#FF0B37" height="50" width="50"><defs><symbol id="a" viewBox="0 0 80 80"><path d="M52.688 10.432c.29-.167.635-.208.955-.115l15.755 4.635a3.65 3.65 0 102.05-7.007L55.703 3.309a8.509 8.509 0 00-10.688 6.23L41.98 22.436h-6.903c-.639-7.725-7.204-13.604-14.952-13.39-7.749.212-13.98 6.444-14.193 14.192-.214 7.749 5.665 14.313 13.39 14.953v29.263a8.527 8.527 0 008.517 8.517H49.74a8.527 8.527 0 008.517-8.517V24.87a2.433 2.433 0 00-2.433-2.433h-6.348l2.639-11.226c.074-.328.282-.61.573-.778zM8.372 23.652c.005-6.479 5.087-11.817 11.558-12.141 6.47-.324 12.06 4.479 12.714 10.925H21.756a2.433 2.433 0 00-2.434 2.433v10.889a12.183 12.183 0 01-10.95-12.106zm47.452 1.217v42.585a6.09 6.09 0 01-6.084 6.084h-21.9a6.09 6.09 0 01-6.084-6.084V24.87h19.652L37.4 41.903H25.406c-.672 0-1.217.545-1.217 1.217v24.334a3.65 3.65 0 003.65 3.65H49.74a3.65 3.65 0 003.65-3.65V43.12c0-.672-.545-1.217-1.217-1.217H44.9l4.004-17.034h6.92zm-4.867 19.468v23.117c0 .672-.545 1.217-1.217 1.217h-21.9a1.217 1.217 0 01-1.218-1.217V44.337h24.335zM39.9 41.903l4.008-17.034h2.496L42.4 41.903h-2.5zm9.847-31.256l-2.77 11.789H44.48l2.904-12.344a6.073 6.073 0 017.634-4.447l15.746 4.636c.312.089.576.301.73.587.157.285.194.62.102.932a1.217 1.217 0 01-1.506.818l-15.773-4.64a3.65 3.65 0 00-4.57 2.669z"/><path d="M20.539 18.786c.672 0 1.217-.545 1.217-1.217v-2.433a1.217 1.217 0 00-2.434 0v2.433c0 .672.545 1.217 1.217 1.217zm-4.867 4.866c0-.672-.545-1.216-1.217-1.216h-2.433a1.217 1.217 0 000 2.433h2.433c.672 0 1.217-.545 1.217-1.217zm9.169-3.085c.323 0 .632-.128.86-.357l1.782-1.78a1.217 1.217 0 00-1.72-1.721L23.98 18.49a1.217 1.217 0 00.86 2.077zm-9.525-3.858a1.217 1.217 0 00-1.72 1.72l1.78 1.781a1.217 1.217 0 001.72-1.72l-1.78-1.781zm.06 10.385l-1.78 1.782a1.216 1.216 0 101.72 1.72l1.78-1.781a1.217 1.217 0 00-1.72-1.72zm29.497 31.843a3.65 3.65 0 100 7.3 3.65 3.65 0 000-7.3zm0 4.867a1.217 1.217 0 110-2.433 1.217 1.217 0 010 2.433zm-10.95-9.734a3.65 3.65 0 100-7.3 3.65 3.65 0 000 7.3zm0-4.867a1.217 1.217 0 110 2.434 1.217 1.217 0 010-2.434zm7.3 6.084a1.217 1.217 0 100-2.433 1.217 1.217 0 000 2.433zm6.084 1.217a1.217 1.217 0 100-2.434 1.217 1.217 0 000 2.434zm-2.434-7.301a1.217 1.217 0 100-2.433 1.217 1.217 0 000 2.433zm-7.3 12.167a1.217 1.217 0 100-2.433 1.217 1.217 0 000 2.434zm-7.3-2.433a1.217 1.217 0 100-2.433 1.217 1.217 0 000 2.433zm2.433 7.3a1.217 1.217 0 100-2.433 1.217 1.217 0 000 2.433z"/></symbol></defs><use href="#a"/></svg>