<svg xmlns="http://www.w3.org/2000/svg" class="feature__icon-image" fill="#FF0B37" height="50" width="50"><defs><symbol id="a" viewBox="0 0 80 80"><path fill-rule="evenodd" clip-rule="evenodd" d="M8.986 43.446c2.292 0 4.157-1.886 4.157-4.203a4.208 4.208 0 00-2.737-3.95v-11.26L22.1 27.78v12.43c.012.435.205.846.56 1.107.255.188 6.391 4.613 17.311 4.613s17.055-4.425 17.31-4.613c.346-.255.56-.677.56-1.107V27.78l13.533-4.335a1.374 1.374 0 00.132-2.567L40.52 7.31a1.374 1.374 0 00-1.102 0L8.435 20.877c-.523.23-.85.759-.82 1.33.004.095.044 13.053.044 13.053a4.206 4.206 0 00-2.83 3.983c0 2.317 1.865 4.203 4.157 4.203zM28.713 24.44c8.109-2.978 18.89-2.682 26.38 1.817v11.56c-4.829-2.435-10.356-3.403-15.731-3.322-4.973.075-10.052 1.066-14.514 3.322V26.254c1.213-.733 2.533-1.325 3.865-1.814zM39.97 43.18c-6.588 0-11.3-1.767-13.75-2.975 8.275-4.1 19.217-4.07 27.49.005-2.453 1.208-7.16 2.97-13.74 2.97zm-.001-33.112l27.104 11.868-9.359 2.998a1.47 1.47 0 00-.501-.581c-4.822-3.405-11.497-4.566-17.244-4.566-5.792 0-12.363 1.159-17.212 4.544a1.514 1.514 0 00-.533.603l-9.358-2.998L39.97 10.068zM8.986 37.788c.777 0 1.41.652 1.41 1.455 0 .802-.633 1.455-1.41 1.455-.777 0-1.409-.653-1.409-1.455 0-.803.632-1.456 1.41-1.456zm63.467 26.238l-1.857-.5c.147-1.486.606-2.754 1.372-3.78.666-.894 1.348-1.288 1.423-1.33.52-.247.816-.785.764-1.358a1.38 1.38 0 00-1.035-1.198l-7.075-1.85a1.374 1.374 0 00-.695 2.658l4.597 1.202c-.867 1.08-1.725 2.677-2.032 4.934l-17.522-4.73c-3.057-.827-6.285 1.57-6.285 4.765 0 .414-.174.81-.491 1.119-.321.31-.753.488-1.185.488h-1.059v-5.762a6.398 6.398 0 018.032-6.188l4.24 1.11a1.374 1.374 0 10.695-2.659l-4.237-1.108a9.106 9.106 0 00-5.287.19A9.138 9.138 0 0040 53.865a9.133 9.133 0 00-4.814-3.835 9.102 9.102 0 00-5.286-.192L6.86 55.871a1.38 1.38 0 00-1.036 1.198 1.352 1.352 0 00.764 1.358c.076.042.757.437 1.423 1.33.765 1.025 1.224 2.291 1.372 3.775l-1.834.493a3.595 3.595 0 00-2.21 1.654 3.595 3.595 0 00-.399 2.741l.276 1.087a3.596 3.596 0 001.656 2.22c.83.495 1.804.636 2.741.399l.022-.006 18.82-5.098a10.096 10.096 0 003.076 3.794 9.878 9.878 0 005.97 1.99H42.5c2.17 0 4.234-.688 5.97-1.99a10.095 10.095 0 003.075-3.794l18.82 5.098.022.006a3.595 3.595 0 002.742-.4 3.595 3.595 0 001.656-2.22l.275-1.086a3.596 3.596 0 00-.398-2.74 3.596 3.596 0 00-2.21-1.654zm-62.42-6.145l20.566-5.385a6.397 6.397 0 018.027 6.188v5.762H37.57c-.89 0-1.68-.748-1.68-1.608 0-3.202-3.245-5.564-6.281-4.764L12.064 62.81c-.308-2.255-1.166-3.85-2.031-4.929zm62.364 9.864l-.276 1.087c-.177.499-.527.71-1.05.632l-20-5.417a1.374 1.374 0 00-1.67.92c-.928 2.997-3.766 5.09-6.901 5.09h-5c-3.135 0-5.973-2.093-6.9-5.09a1.375 1.375 0 00-1.672-.92l-20 5.417c-.522.078-.873-.133-1.05-.633l-.275-1.086c-.112-.443.218-.948.65-1.064l22.172-5.968c1.382-.344 2.704.767 2.718 2.167.022 2.295 2.018 4.314 4.425 4.314h4.862a4.435 4.435 0 003.097-1.263 4.278 4.278 0 001.329-3.093c0-1.375 1.37-2.46 2.717-2.125l22.172 5.968c.433.116.763.621.65 1.064z"/><path d="M59.251 52.71a1.389 1.389 0 011.906.379 1.39 1.39 0 01-.38 1.906 1.387 1.387 0 01-1.905-.38 1.386 1.386 0 01.38-1.905z"/></symbol></defs><use href="#a"/></svg>