<svg xmlns:xlink="http://www.w3.org/1999/xlink" xmlns="http://www.w3.org/2000/svg" class="logo__icon" width="86" height="51" fill="currentColor"><defs><symbol id="a" viewBox="0 0 240 143"><path fill-rule="evenodd" clip-rule="evenodd" d="M123.539 58.316L134.723 0h17.346l11.184 58.316h1.907l9.346-24.44 9.345 24.44v75.453h-29.374V99.938l-10.923-25.47-11.176 25.489v33.812h-29.437V99.18c1.686.81 3.572 1.214 5.658 1.214 2.674 0 5.118-.79 7.33-2.37v-3.355a10.778 10.778 0 01-2.808 2.042c-1.459.754-2.966 1.13-4.522 1.13-2.033 0-3.919-.596-5.658-1.789V79.526c1.602-1.16 3.476-1.74 5.622-1.74 1.41 0 2.808.316 4.193.948 1.143.535 2.2 1.288 3.173 2.26V77.64c-2.115-1.604-4.51-2.407-7.184-2.407-2.145 0-4.08.417-5.804 1.25V58.316l9.345-24.44 9.346 24.44h1.907zm3.566 17.318h-2.699v24.323h2.699V75.634zm37.127 2.553h5.907v-2.553h-14.513v2.553h5.908v21.77h2.698v-21.77zm12.901-2.553h2.698v24.323h-2.698V75.634z"/><path d="M102.941 76.483v3.043a9.997 9.997 0 00-1.38 1.214c-1.847 1.944-2.77 4.339-2.77 7.183 0 3.063 1.008 5.482 3.026 7.257.367.32.742.61 1.124.872v3.128a12.164 12.164 0 01-3.349-2.396c-2.382-2.407-3.573-5.372-3.573-8.897 0-3.623 1.203-6.637 3.61-9.044a12.288 12.288 0 013.312-2.36zm48.518 23.455h-16.102l2.909-6.837h10.357l2.836 6.837z"/><path fill-rule="evenodd" clip-rule="evenodd" d="M16.263 93.101l2.845 6.856h2.99l-10.903-25.49L0 99.958h2.99L5.907 93.1h10.356zm-1.057-2.552H6.965l4.157-9.737 4.084 9.737z"/><path d="M37.489 80.448l2.151-1.422c-.583-1.143-1.373-2.042-2.37-2.699-1.094-.729-2.395-1.094-3.902-1.094-1.993 0-3.634.584-4.923 1.75-1.264 1.143-1.896 2.65-1.896 4.522 0 1.58.56 2.905 1.678 3.975.68.656 1.762 1.325 3.245 2.006l2.188 1.02c1.483.681 2.455 1.24 2.917 1.678.802.73 1.203 1.677 1.203 2.844 0 1.337-.425 2.48-1.276 3.428-.85.924-2.054 1.386-3.61 1.386-1.434 0-2.601-.45-3.5-1.35-.803-.85-1.289-1.884-1.46-3.1l-2.625.73c.414 1.8 1.167 3.234 2.261 4.303 1.337 1.313 3.1 1.969 5.288 1.969 2.212 0 4.047-.693 5.506-2.078 1.458-1.386 2.188-3.185 2.188-5.397 0-1.775-.584-3.245-1.75-4.412-.779-.778-2.03-1.544-3.757-2.298l-2.333-1.02c-1.216-.535-2.067-1.046-2.553-1.532-.608-.584-.911-1.289-.911-2.115 0-1.118.376-2.018 1.13-2.699.754-.705 1.738-1.057 2.954-1.057 1.094 0 2.005.28 2.734.839.56.462 1.034 1.07 1.423 1.823zm21.754-1.422l-2.151 1.422c-.39-.754-.864-1.361-1.423-1.823-.729-.56-1.64-.84-2.734-.84-1.216 0-2.2.353-2.954 1.058-.754.681-1.13 1.58-1.13 2.699 0 .826.303 1.531.911 2.115.486.486 1.337.996 2.553 1.531l2.333 1.021c1.726.754 2.978 1.52 3.756 2.298 1.167 1.166 1.75 2.637 1.75 4.412 0 2.212-.729 4.011-2.187 5.397-1.459 1.385-3.294 2.078-5.507 2.078-2.188 0-3.95-.656-5.287-1.969-1.094-1.07-1.848-2.504-2.26-4.303l2.625-.73c.17 1.216.656 2.25 1.458 3.1.9.9 2.067 1.35 3.5 1.35 1.557 0 2.76-.462 3.61-1.386.852-.948 1.277-2.09 1.277-3.428 0-1.167-.4-2.115-1.203-2.844-.462-.438-1.434-.997-2.917-1.677l-2.188-1.021c-1.483-.681-2.565-1.35-3.246-2.006-1.118-1.07-1.677-2.395-1.677-3.975 0-1.872.632-3.379 1.896-4.521 1.289-1.167 2.93-1.75 4.923-1.75 1.507 0 2.808.364 3.902 1.093.996.657 1.787 1.556 2.37 2.699z"/><path fill-rule="evenodd" clip-rule="evenodd" d="M77.168 100.394c3.55 0 6.54-1.203 8.97-3.61 2.456-2.407 3.684-5.397 3.684-8.97 0-3.598-1.228-6.588-3.683-8.97-2.456-2.407-5.446-3.61-8.97-3.61-3.526 0-6.516 1.203-8.971 3.61-2.455 2.382-3.683 5.372-3.683 8.97 0 3.573 1.216 6.564 3.647 8.97 2.455 2.407 5.457 3.61 9.006 3.61zm0-22.608c2.747 0 5.081.972 7.002 2.917 1.92 1.945 2.88 4.315 2.88 7.11 0 2.796-.96 5.167-2.88 7.111-1.92 1.945-4.255 2.918-7.002 2.918s-5.08-.973-7-2.918c-1.921-1.944-2.882-4.315-2.882-7.11 0-2.796.96-5.166 2.881-7.11 1.92-1.946 4.254-2.918 7.001-2.918z"/><path d="M139.324 90.549h8.241l-4.084-9.737-4.157 9.737z"/><path fill-rule="evenodd" clip-rule="evenodd" d="M199.635 100.394c3.549 0 6.54-1.203 8.971-3.61 2.455-2.407 3.683-5.397 3.683-8.97 0-3.598-1.228-6.588-3.683-8.97-2.456-2.407-5.446-3.61-8.971-3.61-3.525 0-6.515 1.203-8.97 3.61-2.456 2.382-3.683 5.372-3.683 8.97 0 3.573 1.215 6.564 3.646 8.97 2.456 2.407 5.458 3.61 9.007 3.61zm0-22.608c2.747 0 5.081.972 7.001 2.917 1.921 1.945 2.881 4.315 2.881 7.11 0 2.796-.96 5.167-2.881 7.111-1.92 1.945-4.254 2.918-7.001 2.918-2.747 0-5.081-.973-7.001-2.918-1.921-1.944-2.881-4.315-2.881-7.11 0-2.796.96-5.166 2.881-7.11 1.92-1.946 4.254-2.918 7.001-2.918z"/><path d="M222.508 99.957h-2.489V74.613l17.492 19.874V75.634H240v25.417l-17.492-19.874v18.78zm-116.637 37.221v-.587h-2.9v5.59h2.9v-.586h-2.279v-2.171h2.212v-.587h-2.212v-1.659h2.279z"/><path fill-rule="evenodd" clip-rule="evenodd" d="M107.015 136.591v5.59h1.131c.481 0 .874-.05 1.182-.15.307-.101.595-.266.863-.495.654-.559.981-1.274.981-2.145 0-.9-.319-1.615-.956-2.146-.514-.436-1.201-.654-2.062-.654h-1.139zm.62 5.004v-4.417h.545c.709 0 1.279.201 1.709.603.431.403.646.939.646 1.61 0 .709-.252 1.276-.755 1.701-.402.335-.936.503-1.6.503h-.545z"/><path d="M112.93 140.019v-3.428h-.62v3.596c0 .57.117 1.017.352 1.341.173.234.4.419.679.553.285.134.603.201.955.201s.668-.067.948-.201c.284-.134.514-.319.687-.553.234-.324.352-.771.352-1.341v-3.596h-.62v3.428c0 .212-.006.377-.017.495a1.345 1.345 0 01-.118.435c-.067.168-.17.311-.31.428a1.38 1.38 0 01-.922.318c-.363 0-.67-.106-.921-.318a1.144 1.144 0 01-.319-.428 1.696 1.696 0 01-.117-.435 10.387 10.387 0 01-.009-.495zm9.073-2.196v-.771a2.66 2.66 0 00-1.651-.553c-.838 0-1.537.277-2.096.83-.553.553-.829 1.246-.829 2.078 0 .81.273 1.492.821 2.045.553.553 1.243.83 2.07.83.615 0 1.176-.182 1.685-.545v-.771a2.489 2.489 0 01-.646.47 2.236 2.236 0 01-1.039.259c-.57 0-1.089-.204-1.559-.611-.463-.408-.695-.964-.695-1.668 0-.654.212-1.204.637-1.651.43-.453.966-.679 1.609-.679.324 0 .645.072.964.218.262.123.505.296.729.519z"/><path fill-rule="evenodd" clip-rule="evenodd" d="M126.231 140.606l.654 1.575h.687l-2.506-5.858-2.573 5.858h.687l.671-1.575h2.38zm-.243-.587h-1.894l.955-2.238.939 2.238z"/><path d="M129.637 137.178h1.357v-.587h-3.335v.587h1.358v5.003h.62v-5.003zm2.814-.587h-.62v5.59h.62v-5.59z"/><path fill-rule="evenodd" clip-rule="evenodd" d="M136.5 142.282c.816 0 1.503-.277 2.062-.83.564-.553.846-1.24.846-2.061 0-.827-.282-1.515-.846-2.062-.565-.553-1.252-.83-2.062-.83-.81 0-1.498.277-2.062.83-.564.547-.846 1.235-.846 2.062 0 .821.279 1.508.838 2.061.564.553 1.254.83 2.07.83zm0-5.196c.631 0 1.168.223 1.609.67.441.447.662.992.662 1.635a2.24 2.24 0 01-.662 1.634c-.441.447-.978.67-1.609.67a2.174 2.174 0 01-1.609-.67 2.236 2.236 0 01-.662-1.634c0-.643.22-1.188.662-1.635.441-.447.977-.67 1.609-.67z"/><path d="M140.548 142.181h.62v-4.316l4.358 4.568v-5.842h-.62v4.333l-4.358-4.567v5.824z"/><path fill-rule="evenodd" clip-rule="evenodd" d="M150.049 140.606l.653 1.575h.688l-2.506-5.858-2.573 5.858h.687l.67-1.575h2.381zm-.243-.587h-1.895l.956-2.238.939 2.238z"/><path d="M152.798 136.591h-.62v5.59h2.162v-.586h-1.542v-5.004zm8.614 1.232v-.771a2.659 2.659 0 00-1.651-.553c-.838 0-1.536.277-2.095.83-.553.553-.83 1.246-.83 2.078 0 .81.274 1.492.822 2.045.553.553 1.243.83 2.07.83.614 0 1.176-.182 1.684-.545v-.771c-.195.196-.41.352-.645.47a2.239 2.239 0 01-1.039.259c-.57 0-1.09-.204-1.559-.611-.464-.408-.696-.964-.696-1.668 0-.654.213-1.204.637-1.651.43-.453.967-.679 1.609-.679.325 0 .646.072.964.218.263.123.506.296.729.519zm4.044-.645v-.587h-2.9v5.59h2.9v-.586h-2.279v-2.171h2.212v-.587h-2.212v-1.659h2.279zm1.144 5.003h.62v-4.316l4.358 4.568v-5.842h-.62v4.333l-4.358-4.567v5.824zm7.791-5.003h1.358v-.587h-3.336v.587h1.358v5.003h.62v-5.003zm5.094 0v-.587h-2.9v5.59h2.9v-.586h-2.28v-2.171h2.213v-.587h-2.213v-1.659h2.28z"/><path fill-rule="evenodd" clip-rule="evenodd" d="M181.525 136.591h-.897v5.59h.621v-2.447h.159l1.701 2.447h.754l-1.776-2.497c.419-.028.757-.185 1.014-.469.262-.285.394-.643.394-1.073 0-.553-.204-.967-.612-1.241-.302-.206-.754-.31-1.358-.31zm-.276 2.59v-2.003h.377c.346 0 .614.053.804.159.296.168.444.442.444.821 0 .325-.109.576-.326.755-.218.179-.52.268-.906.268h-.393z"/></symbol></defs><use xlink:href="#a" fill="#FF0B37"/></svg>