<svg xmlns="http://www.w3.org/2000/svg" class="feature__icon-image" fill="#FF0B37" height="40" width="33.6"><defs><symbol id="a" viewBox="0 0 80 80"><path d="M56.31 22.562c5.4.433 10.47 2.836 14.3 6.774 3.83 3.939 6.165 9.155 6.587 14.708H56.31V22.562zm-3.495 21.482V22.562c-5.399.433-10.47 2.836-14.3 6.774-3.828 3.939-6.164 9.155-6.585 14.708h20.885zM31.84 47.64v8.989c0 6.198 2.394 12.143 6.656 16.526C42.757 77.538 48.536 80 54.563 80c6.026 0 11.806-2.462 16.067-6.845 4.262-4.383 6.656-10.328 6.656-16.526v-8.99H31.84zm20.064-28.627a25.442 25.442 0 015.242-.004c-.192-5.173-2.35-10.062-6.01-13.616-3.66-3.554-8.53-5.49-13.562-5.39-5.032.1-9.826 2.228-13.35 5.925-3.523 3.697-5.495 8.668-5.493 13.846v49.44a5.47 5.47 0 01-1.536 3.813 5.17 5.17 0 01-3.708 1.58 5.17 5.17 0 01-3.707-1.58 5.473 5.473 0 01-1.536-3.814V40.448c0-.715-.277-1.4-.768-1.907a2.586 2.586 0 00-1.854-.79c-.696 0-1.362.285-1.854.79A2.737 2.737 0 003 40.448v28.765c0 2.861 1.105 5.605 3.072 7.628A10.34 10.34 0 0013.487 80c2.782 0 5.45-1.136 7.416-3.16 1.967-2.022 3.072-4.766 3.072-7.627v-49.44c-.002-3.747 1.42-7.347 3.96-10.032 2.542-2.685 6.002-4.243 9.644-4.343 3.642-.099 7.178 1.269 9.854 3.812 2.676 2.543 4.28 6.06 4.471 9.803z"/></symbol></defs><use href="#a"/></svg>