<svg xmlns="http://www.w3.org/2000/svg" class="feature__icon-image" fill="#FF0B37" height="40" width="33.6"><defs><symbol id="a" viewBox="0 0 80 81"><path d="M55.6 13.466H10.8a4.8 4.8 0 00-4.8 4.8v49.817l9.87-4.816a1.6 1.6 0 012.141.738l8.127 16.66H55.6a4.8 4.8 0 004.8-4.8v-57.6a4.8 4.8 0 00-4.8-4.8zm-4.8 54.4H33.2a1.6 1.6 0 110-3.2h17.6a1.6 1.6 0 010 3.2zm0-12.8H15.6a1.6 1.6 0 010-3.2h35.2a1.6 1.6 0 110 3.2zm0-12.8H15.6a1.6 1.6 0 110-3.2h35.2a1.6 1.6 0 010 3.2zm0-12.8H15.6a1.6 1.6 0 010-3.2h35.2a1.6 1.6 0 010 3.2z"/><path d="M7.505 70.91l14.835 9.27-6.504-13.333-8.331 4.064zM65.2 74.265a1.6 1.6 0 01-1.6-1.6v-60.8a1.6 1.6 0 00-1.6-1.6H10.8a1.6 1.6 0 010-3.2H62a4.8 4.8 0 014.8 4.8v60.8a1.6 1.6 0 01-1.6 1.6z"/><path d="M71.6 67.866a1.6 1.6 0 01-1.6-1.6v-60.8a1.6 1.6 0 00-1.6-1.6h-48a1.6 1.6 0 010-3.2h48a4.8 4.8 0 014.8 4.8v60.8a1.6 1.6 0 01-1.6 1.6z"/></symbol></defs><use href="#a"/></svg>