<svg xmlns="http://www.w3.org/2000/svg" width="16" height="17" fill="none"><path fill-rule="evenodd" clip-rule="evenodd" d="M8 0a7.972 7.972 0 00-4.445 1.355A8.031 8.031 0 00.61 4.963a8.077 8.077 0 00-.455 4.645 8.052 8.052 0 002.19 4.117 7.989 7.989 0 004.095 2.2c1.552.31 3.16.15 4.623-.458a8.01 8.01 0 003.59-2.96 8.069 8.069 0 00-.998-10.149A7.989 7.989 0 008 0zm0 14.07a5.979 5.979 0 01-3.333-1.017 6.023 6.023 0 01-2.21-2.706 6.058 6.058 0 011.3-6.571 5.973 5.973 0 016.539-1.307 6.006 6.006 0 012.693 2.22 6.051 6.051 0 01-.746 7.614A5.985 5.985 0 018 14.07zm2.293-8.75L7 8.628l-1.293-1.3a1 1 0 00-1.098-.232 1 1 0 00-.621.94 1.01 1.01 0 00.305.713l2 2.01a.997.997 0 001.414 0l4-4.02a1.005 1.005 0 00.23-1.103 1.004 1.004 0 00-.933-.625.996.996 0 00-.711.307z" fill="#FF0B37"/></svg>