<svg xmlns:xlink="http://www.w3.org/1999/xlink" xmlns="http://www.w3.org/2000/svg" width="32" height="32" fill="currentColor"><defs><symbol id="a" viewBox="0 0 40 40"><path fill-rule="evenodd" clip-rule="evenodd" d="M20 40c11.046 0 20-8.954 20-20S31.046 0 20 0 0 8.954 0 20s8.954 20 20 20zm12.375-27c.96 0 1.161.488.96 1.151-.404 1.825-4.27 7.2-4.27 7.2-.335.53-.47.796 0 1.393.166.229.52.57.925.962.416.402.886.857 1.26 1.294 1.363 1.513 2.39 2.79 2.677 3.67.261.883-.192 1.33-1.099 1.33h-3.172c-.85 0-1.278-.47-2.203-1.485-.392-.43-.873-.959-1.513-1.59-1.882-1.792-2.689-2.025-3.16-2.025-.638 0-.83.179-.83 1.074v2.808c0 .77-.249 1.218-2.265 1.218-3.361 0-7.055-2.014-9.677-5.73C6.076 18.829 5 14.715 5 13.886 5 13.42 5.181 13 6.088 13H9.26c.811 0 1.116.35 1.42 1.217 1.552 4.462 4.168 8.361 5.244 8.361.403 0 .588-.183.588-1.194v-4.612c-.073-1.313-.537-1.88-.881-2.3-.213-.26-.38-.464-.38-.752 0-.35.304-.72.808-.72h4.985c.673 0 .896.355.896 1.151v6.204c0 .664.303.896.504.896.404 0 .74-.232 1.48-.962 2.285-2.522 3.898-6.403 3.898-6.403.202-.465.574-.886 1.38-.886h3.173z"/></symbol></defs><use xlink:href="#a"/></svg>