<svg xmlns:xlink="http://www.w3.org/1999/xlink" xmlns="http://www.w3.org/2000/svg" width="32" height="32" fill="currentColor"><defs><symbol id="a" viewBox="0 0 40 40"><path d="M17.73 23.938l6.896-3.982-6.895-3.982v7.964z"/><path fill-rule="evenodd" clip-rule="evenodd" d="M20 40c11.046 0 20-8.954 20-20S31.046 0 20 0 0 8.954 0 20s8.954 20 20 20zm13.1-26.432a3.33 3.33 0 00-2.348-2.348c-2.069-.553-10.37-.553-10.37-.553s-8.297 0-10.37.553a3.33 3.33 0 00-2.348 2.348c-.553 2.069-.553 6.388-.553 6.388s0 4.32.553 6.389a3.33 3.33 0 002.348 2.347c2.073.553 10.37.553 10.37.553s8.302 0 10.37-.553a3.33 3.33 0 002.348-2.347c.553-2.069.553-6.389.553-6.389s0-4.32-.553-6.388z"/></symbol></defs><use xlink:href="#a"/></svg>